<svg width="50" height="50" viewBox="0 0 50 50" fill="none" xmlns="http://www.w3.org/2000/svg">
<path d="M25 2.0832C31.0136 2.0221 36.8055 4.35114 41.1026 8.55847C45.3998 12.7658 47.8507 18.5071 47.9167 24.5207C47.8935 29.2731 46.3647 33.896 43.5499 37.7252C40.735 41.5544 36.779 44.393 32.25 45.8332C31.1042 46.0415 30.6875 45.354 30.6875 44.7499C30.6875 44.1457 30.6875 42.8124 30.6875 40.9374C37.0625 42.2915 38.4167 37.9374 38.4167 37.9374C38.841 36.5705 39.7433 35.4021 40.9583 34.6457C43.0417 33.2707 40.7917 33.2915 40.7917 33.2915C40.0716 33.3878 39.3826 33.6459 38.7764 34.0464C38.1703 34.4469 37.6627 34.9794 37.2917 35.604C36.6451 36.7251 35.5843 37.5476 34.3375 37.8943C33.0906 38.2411 31.7575 38.0845 30.625 37.4582C30.5085 36.3173 29.9919 35.2545 29.1667 34.4582C34.25 33.8957 39.5833 31.979 39.5833 23.3749C39.6288 21.1305 38.7995 18.9564 37.2708 17.3124C37.967 15.3854 37.8848 13.263 37.0417 11.3957C37.0417 11.3957 35.1042 10.7915 30.7917 13.6874C27.0377 12.687 23.0873 12.687 19.3333 13.6874C14.9583 10.7915 13.0833 11.3957 13.0833 11.3957C12.2402 13.263 12.158 15.3854 12.8542 17.3124C11.29 18.9262 10.4157 21.0857 10.4167 23.3332C10.4167 31.9582 15.7917 33.854 20.8333 34.4165C20.2813 34.9525 19.8548 35.6042 19.5847 36.3246C19.3145 37.045 19.2073 37.8164 19.2708 38.5832V44.729C19.2708 44.729 18.8542 46.0415 17.7083 45.8124C13.1922 44.3632 9.24945 41.524 6.44334 37.7002C3.63722 33.8764 2.11123 29.2636 2.08332 24.5207C2.14928 18.5071 4.60017 12.7658 8.89735 8.55847C13.1945 4.35114 18.9864 2.0221 25 2.0832Z" fill="#231F20"/>
</svg>
