<svg width="50" height="42" viewBox="0 0 50 42" fill="none" xmlns="http://www.w3.org/2000/svg">
<path d="M39.798 9.06454C40.3578 8.76311 41.0348 8.77819 41.5806 9.10419C42.1264 9.43021 42.4606 10.0191 42.4606 10.6549V33.5344C42.4606 34.532 41.6519 35.3407 40.6544 35.3407C39.6568 35.3407 38.8481 34.532 38.8481 33.5344V13.679L25.8564 20.6745C25.3218 20.9625 24.6783 20.9625 24.1436 20.6745L11.1519 13.679V33.5344C11.1519 34.532 10.3432 35.3407 9.34565 35.3407C8.34811 35.3407 7.53938 34.532 7.53938 33.5344V10.6549C7.53938 10.0191 7.87366 9.43021 8.4194 9.10419C8.96513 8.77819 9.64212 8.76311 10.2021 9.06454L25 17.0328L39.798 9.06454Z" fill="black"/>
<path fill-rule="evenodd" clip-rule="evenodd" d="M12.2102 1.55562C20.7196 0.794773 29.2802 0.794773 37.7898 1.55562L41.4441 1.88237C45.364 2.23285 48.5312 5.22746 49.1005 9.12159C50.2998 17.3253 50.2998 25.6597 49.1005 33.8633C48.5312 37.7574 45.364 40.752 41.4441 41.1026L37.7898 41.4292C29.2802 42.1902 20.7196 42.1902 12.2102 41.4292L8.55595 41.1026C4.63586 40.752 1.46886 37.7574 0.899525 33.8633C-0.299843 25.6597 -0.299843 17.3253 0.899525 9.12159C1.46886 5.22746 4.63586 2.23285 8.55595 1.88237L12.2102 1.55562ZM37.4681 5.15381C29.1725 4.41211 20.8275 4.41211 12.5319 5.15381L8.87746 5.48056C6.62299 5.68214 4.80155 7.40448 4.47401 9.64418C3.32523 17.5012 3.32523 25.4837 4.47401 33.3407C4.80155 35.5805 6.62299 37.3027 8.87746 37.5043L12.5319 37.8311C20.8275 38.5729 29.1725 38.5729 37.4681 37.8311L41.1224 37.5043C43.3769 37.3027 45.1985 35.5805 45.5259 33.3407C46.6746 25.4837 46.6746 17.5012 45.5259 9.64418C45.1985 7.40448 43.3769 5.68214 41.1224 5.48056L37.4681 5.15381Z" fill="black"/>
</svg>
